# xmcd
#
# Track frame offsets:
#	150
#	13799
#	27691
#	40327
#	53136
#	66448
#	76927
#	89587
#	101896
#	115032
#	129753
#	141182
#	153695
#	166647
#	182874
#
# Disc length: 2659 seconds
#
# Revision: 0
# Processed by: cddbd v1.5.1PL0 Copyright (c) Steve Scherf et al.
# Submitted via: dBpowerAMP V4.0
#
DISCID=cc0a610f
DTITLE=Teodoro and Sampaio - Mulher Chorona
DYEAR=2004
DGENRE=Folk
TTITLE0=Mulher Chorona
TTITLE1=Alô Mulherada
TTITLE2=É Mentira Dela
TTITLE3=Pinga na Véia
TTITLE4=Tontão
TTITLE5=Nem Aí
TTITLE6=Bebo e Choro
TTITLE7=Brinquinho na Orelha
TTITLE8=Você Quer Largar de Mim
TTITLE9=Vai Chover Mulher
TTITLE10=Eternos Companheiros
TTITLE11=Só Dou Carona Pra Quem Deu Pra Mim
TTITLE12=Filho da Tuta
TTITLE13=Telefone no Ar
TTITLE14=Vendavais
EXTD=
EXTT0=
EXTT1=
EXTT2=
EXTT3=
EXTT4=
EXTT5=
EXTT6=
EXTT7=
EXTT8=
EXTT9=
EXTT10=
EXTT11=
EXTT12=
EXTT13=
EXTT14=
PLAYORDER=
